<svg width="401" height="374" viewBox="0 0 401 374" fill="none" xmlns="http://www.w3.org/2000/svg">
<path d="M254.754 174.925C254.754 79.0511 401 7.31842 401 7.31842L395.262 0C395.262 0 324.128 61.1568 205.125 61.1568C203.585 61.1568 197.424 61.1568 195.866 61.1568C76.8638 61.1568 5.73812 0 5.73812 0L0 7.31842C0 7.31842 146.246 79.0424 146.246 174.925C146.246 305.196 0 366.682 0 366.682L4.29936 374C4.29936 374 101.957 306.665 195.866 305.931C197.407 305.922 203.568 305.922 205.125 305.931C299.034 306.665 396.692 374 396.692 374L400.992 366.682C400.992 366.682 254.746 305.205 254.746 174.925H254.754Z" fill="white"/>
</svg>
