<svg width="450" height="119" viewBox="0 0 450 119" fill="none" xmlns="http://www.w3.org/2000/svg">
<g clip-path="url(#clip0_13_90)">
<path d="M392.304 46.66H383.949V53.2419H392.304V46.66Z" fill="white"/>
<path d="M179.013 32.4658C179.013 30.0993 179.285 28.0927 179.825 26.4361C180.369 24.7845 181.11 23.4533 182.052 22.4426C183 21.4319 184.098 20.6973 185.358 20.2437C186.618 19.7901 187.954 19.5584 189.365 19.5584C191.532 19.5584 193.291 19.9922 194.636 20.8501C195.982 21.7129 197.03 22.8469 197.771 24.252C198.512 25.6571 199.021 27.1806 199.283 28.8174C199.55 30.4592 199.681 32.0517 199.681 33.6047V53.237H207.694V31.0508C207.694 29.8183 207.583 28.3885 207.357 26.7615C207.13 25.1345 206.701 23.4681 206.071 21.7721C205.441 20.0711 204.529 18.4984 203.33 17.0587C202.13 15.6142 200.578 14.4506 198.663 13.5632C196.748 12.6757 194.379 12.232 191.557 12.232C187.878 12.232 184.738 13.006 182.143 14.5591C180.555 15.5106 179.195 16.689 178.061 18.099V0H171V53.2469H179.013V32.4658Z" fill="white"/>
<path d="M214.085 49.4949C215.279 50.9346 216.836 52.1031 218.751 52.9905C220.666 53.8779 223.035 54.3217 225.857 54.3217C229.536 54.3217 232.676 53.5427 235.272 51.9946C236.859 51.043 238.22 49.8647 239.354 48.4547V53.2518H246.384V13.3117H238.406V34.0928C238.406 36.4593 238.134 38.4709 237.595 40.1176C237.051 41.7692 236.31 43.1004 235.367 44.1111C234.42 45.1218 233.321 45.8564 232.061 46.31C230.801 46.7685 229.466 46.9953 228.055 46.9953C225.888 46.9953 224.129 46.5614 222.783 45.7036C221.438 44.8457 220.389 43.7068 219.648 42.3017C218.903 40.8966 218.399 39.3731 218.137 37.7363C217.869 36.0945 217.738 34.502 217.738 32.949V13.3117H209.725V35.4979C209.725 36.7305 209.836 38.1603 210.063 39.7872C210.29 41.4142 210.718 43.0757 211.348 44.7767C211.978 46.4776 212.89 48.0504 214.09 49.49L214.085 49.4949Z" fill="white"/>
<path d="M256.801 28.2899C256.801 25.5782 257.562 23.3843 259.089 21.708C260.611 20.0317 262.622 19.1935 265.117 19.1935C267.612 19.1935 269.648 20.0218 271.144 21.6735C272.641 23.3251 273.392 25.6029 273.392 28.5167L273.352 53.2518H281.249L281.284 28.2899C281.284 26.2685 281.667 24.5872 282.438 23.2462C283.204 21.9052 284.217 20.8895 285.462 20.2141C286.712 19.5337 288.088 19.1985 289.6 19.1985C292.069 19.1985 294.06 20.007 295.572 21.6192C297.084 23.2364 297.84 25.4846 297.84 28.3688L297.799 53.2518H305.702L305.737 26.5199C305.737 22.2306 304.528 18.7942 302.108 16.2058C299.689 13.6174 296.272 12.3207 291.863 12.3207C289.141 12.3207 286.682 12.9074 284.495 14.0759C282.398 15.1951 280.725 16.758 279.47 18.7449C278.407 16.7826 276.925 15.2345 275.005 14.1154C272.964 12.9222 270.494 12.3207 267.596 12.3207C264.699 12.3207 262.345 12.9124 260.153 14.0956C258.454 15.0127 257.033 16.1861 255.879 17.6208V13.3167H248.849V53.2518H256.786V28.2948L256.801 28.2899Z" fill="white"/>
<path d="M313.962 52.7095C316.003 53.804 318.538 54.3562 321.562 54.3562C325.367 54.3562 328.572 53.6117 331.183 52.1178C333.133 51.0036 334.831 49.4456 336.268 47.4538V53.2469H343.263V28.6547C343.263 26.9784 343.187 25.4155 343.036 23.9611C342.885 22.5067 342.482 21.1262 341.827 19.8197C340.567 17.182 338.581 15.2542 335.875 14.0315C333.163 12.8137 329.983 12.2024 326.329 12.2024C321.617 12.2024 317.843 13.2131 315.01 15.2345C312.178 17.2559 310.253 19.9824 309.245 23.4089L316.613 25.6275C317.318 23.3842 318.563 21.777 320.352 20.8008C322.141 19.8295 324.107 19.3414 326.249 19.3414C329.651 19.3414 332.05 20.1007 333.451 21.6143C334.67 22.9356 335.34 24.8781 335.456 27.432C333.914 27.644 332.362 27.856 330.805 28.068C328.275 28.4131 325.861 28.7829 323.568 29.1773C321.275 29.5717 319.223 30.0253 317.409 30.5479C315.318 31.2135 313.554 32.0812 312.117 33.156C310.681 34.2259 309.598 35.5275 308.867 37.0559C308.136 38.5843 307.773 40.3592 307.773 42.3806C307.773 44.5499 308.297 46.5417 309.341 48.3511C310.384 50.1655 311.931 51.6199 313.972 52.7144L313.962 52.7095ZM316.326 39.6048C316.814 38.8653 317.485 38.2342 318.326 37.7165C319.168 37.1988 320.136 36.7551 321.219 36.3854C322.504 35.9909 323.971 35.6507 325.624 35.3697C327.272 35.0887 329.121 34.7978 331.163 34.502C332.473 34.3097 333.884 34.1076 335.376 33.8857C335.361 34.5414 335.335 35.281 335.3 36.129C335.235 37.6081 334.993 38.9392 334.564 40.1225C334.262 41.429 333.617 42.6862 332.634 43.8942C331.651 45.1021 330.351 46.0931 328.743 46.872C327.131 47.651 325.201 48.0356 322.958 48.0356C321.27 48.0356 319.884 47.7743 318.8 47.2566C317.717 46.7389 316.91 46.0437 316.381 45.1662C315.852 44.2935 315.585 43.337 315.585 42.3017C315.585 41.2663 315.832 40.3444 316.321 39.6048H316.326Z" fill="white"/>
<path d="M374.172 33.6146V53.2469H382.185V31.0607C382.185 29.8281 382.074 28.3984 381.842 26.7714C381.615 25.1444 381.187 23.478 380.557 21.7819C379.927 20.081 379.015 18.5083 377.815 17.0686C376.616 15.624 375.064 14.4605 373.148 13.5731C371.233 12.6856 368.865 12.2419 366.042 12.2419C362.363 12.2419 359.224 13.0159 356.628 14.569C355.041 15.5205 353.68 16.6988 352.546 18.1089V13.3118H345.475V53.2469H353.489V32.4658C353.489 30.0993 353.761 28.0927 354.3 26.4361C354.844 24.7845 355.585 23.4533 356.527 22.4426C357.475 21.4319 358.574 20.6973 359.834 20.2437C361.093 19.7901 362.429 19.5584 363.84 19.5584C366.007 19.5584 367.766 19.9923 369.112 20.8501C370.457 21.7129 371.506 22.8469 372.251 24.252C372.992 25.6571 373.496 27.1806 373.763 28.8174C374.03 30.4592 374.161 32.0517 374.161 33.6047L374.172 33.6146Z" fill="white"/>
<path d="M200.084 72.4799C197.297 70.6458 193.991 69.7238 190.161 69.7238C186.331 69.7238 183.06 70.6409 180.429 72.4799C179.946 72.8151 179.492 73.1849 179.048 73.5694V57.5214H171.116V110.768H178.146V107.08C178.862 107.815 179.638 108.486 180.49 109.087C183.136 110.946 186.411 111.878 190.317 111.878C194.223 111.878 197.403 110.951 200.165 109.107C202.927 107.263 205.053 104.739 206.55 101.544C208.047 98.3539 208.798 94.7597 208.798 90.7662C208.798 86.7727 208.042 83.1539 206.53 79.9887C205.018 76.8234 202.871 74.3188 200.084 72.4848V72.4799ZM199.177 97.92C198.361 100.055 197.121 101.746 195.473 103.003C193.82 104.26 191.738 104.891 189.219 104.891C186.699 104.891 184.506 104.29 182.869 103.082C181.231 101.874 180.036 100.213 179.28 98.0926C178.524 95.9726 178.146 93.5321 178.146 90.7711C178.146 88.0102 178.529 85.5697 179.3 83.4497C180.071 81.3297 181.256 79.6781 182.853 78.4948C184.451 77.3115 186.487 76.7199 188.957 76.7199C191.577 76.7199 193.729 77.351 195.423 78.6082C197.111 79.8654 198.366 81.5565 199.182 83.6765C199.999 85.7965 200.412 88.163 200.412 90.7761C200.412 93.3891 200.004 95.8 199.182 97.9299L199.177 97.92Z" fill="white"/>
<path d="M241.682 72.5538C238.759 70.6655 235.216 69.7238 231.058 69.7238C226.901 69.7238 223.584 70.6014 220.591 72.3516C217.592 74.1019 215.254 76.5818 213.581 79.7865C211.907 82.9912 211.066 86.7727 211.066 91.136C211.066 95.2527 211.918 98.8716 213.616 101.987C215.319 105.108 217.698 107.534 220.757 109.274C223.821 111.01 227.379 111.883 231.436 111.883C235.493 111.883 238.981 110.901 242.211 108.944C245.437 106.987 247.841 104.216 249.433 100.642L241.682 98.2356C240.674 100.282 239.268 101.854 237.469 102.949C235.665 104.048 233.533 104.596 231.063 104.596C227.309 104.596 224.436 103.393 222.446 100.992C220.798 99.0047 219.845 96.3275 219.563 92.9848H249.962C250.265 88.2025 249.69 84.0709 248.244 80.6C246.792 77.1241 244.61 74.4421 241.687 72.5587L241.682 72.5538ZM219.739 86.9551C220.157 84.1843 221.049 81.9312 222.446 80.2253C224.436 77.7848 227.41 76.567 231.366 76.567C234.944 76.567 237.61 77.6763 239.359 79.895C240.679 81.5663 241.511 83.9181 241.869 86.96H219.739V86.9551Z" fill="white"/>
<path d="M326.46 70.8578L317.918 98.2603L309.3 70.8578H302.497L293.879 98.2603L285.336 70.8282H277.52V70.8381H264.361V59.745H256.423V70.8381H248.597V77.0502H256.423V95.0605C256.423 97.2298 256.454 99.1723 256.519 100.883C256.58 102.599 257.053 104.28 257.935 105.932C258.918 107.781 260.38 109.136 262.32 109.999C264.26 110.862 266.463 111.33 268.932 111.404C271.401 111.478 273.921 111.266 276.492 110.773V104.226C273.821 104.596 271.497 104.675 269.517 104.467C267.536 104.26 266.095 103.388 265.187 101.859C264.709 101.046 264.452 100.05 264.411 98.8617C264.371 97.6785 264.356 96.2881 264.356 94.6858V77.0453H279.455L289.983 110.793H296.333L305.898 81.877L315.423 110.793H321.774L334.247 70.8578H326.46Z" fill="white"/>
<path d="M362.091 72.5538C359.168 70.6655 355.625 69.7238 351.468 69.7238C347.31 69.7238 343.994 70.6014 341 72.3516C338.001 74.1019 335.663 76.5818 333.99 79.7865C332.317 82.9912 331.475 86.7727 331.475 91.136C331.475 95.2527 332.327 98.8716 334.025 101.987C335.729 105.108 338.107 107.534 341.166 109.274C344.231 111.01 347.789 111.883 351.846 111.883C355.903 111.883 359.39 110.901 362.62 108.944C365.846 106.987 368.25 104.216 369.842 100.642L362.091 98.2356C361.083 100.282 359.677 101.854 357.878 102.949C356.074 104.048 353.942 104.596 351.473 104.596C347.718 104.596 344.845 103.393 342.855 100.992C341.207 99.0047 340.254 96.3275 339.972 92.9848H370.372C370.674 88.2025 370.099 84.0709 368.653 80.6C367.202 77.1241 365.019 74.4421 362.096 72.5587L362.091 72.5538ZM340.148 86.9551C340.567 84.1843 341.459 81.9312 342.855 80.2253C344.845 77.7848 347.819 76.567 351.775 76.567C355.353 76.567 358.019 77.6763 359.768 79.895C361.088 81.5663 361.92 83.9181 362.278 86.96H340.148V86.9551Z" fill="white"/>
<path d="M402.903 72.5538C399.98 70.6655 396.437 69.7238 392.279 69.7238C388.121 69.7238 384.805 70.6014 381.812 72.3516C378.813 74.1019 376.475 76.5818 374.801 79.7865C373.128 82.9912 372.287 86.7727 372.287 91.136C372.287 95.2527 373.138 98.8716 374.837 101.987C376.54 105.108 378.919 107.534 381.978 109.274C385.042 111.01 388.6 111.883 392.657 111.883C396.714 111.883 400.202 110.901 403.432 108.944C406.658 106.987 409.062 104.216 410.654 100.642L402.903 98.2356C401.895 100.282 400.489 101.854 398.69 102.949C396.886 104.048 394.754 104.596 392.284 104.596C388.53 104.596 385.657 103.393 383.666 100.992C382.018 99.0047 381.066 96.3275 380.784 92.9848H411.183C411.486 88.2025 410.911 84.0709 409.465 80.6C408.013 77.1241 405.831 74.4421 402.908 72.5587L402.903 72.5538ZM380.955 86.9551C381.373 84.1843 382.265 81.9312 383.661 80.2253C385.652 77.7848 388.625 76.567 392.582 76.567C396.16 76.567 398.826 77.6763 400.575 79.895C401.895 81.5663 402.727 83.9181 403.084 86.96H380.955V86.9551Z" fill="white"/>
<path d="M449.546 84.2928C449.319 82.6658 448.891 81.0043 448.261 79.3034C447.631 77.6024 446.718 76.0297 445.519 74.59C444.32 73.1504 442.767 71.9819 440.852 71.0945C438.937 70.207 436.568 69.7633 433.746 69.7633C430.067 69.7633 426.927 70.5423 424.337 72.0904C422.749 73.0419 421.389 74.2203 420.255 75.6303V70.8332H413.184V110.768H421.197V89.9873C421.197 87.6207 421.469 85.6141 422.009 83.9625C422.548 82.3108 423.294 80.9797 424.236 79.969C425.184 78.9583 426.282 78.2236 427.542 77.7701C428.802 77.3165 430.138 77.0848 431.549 77.0848C433.716 77.0848 435.475 77.5186 436.82 78.3765C438.166 79.2393 439.214 80.3732 439.955 81.7784C440.696 83.1835 441.2 84.7069 441.467 86.3438C441.734 87.9806 441.865 89.578 441.865 91.1311V110.768H449.878V88.5821C449.878 87.3496 449.767 85.9198 449.541 84.2928H449.546Z" fill="white"/>
</g>
<path d="M78.8011 56.6548C78.8011 26.9361 124.038 4.70067 124.038 4.70067L122.263 2.43213C122.263 2.43213 100.26 21.3893 63.4498 21.3893C62.9733 21.3893 61.0675 21.3893 60.5858 21.3893C23.7757 21.3893 1.77493 2.43213 1.77493 2.43213L0 4.70067C0 4.70067 45.2371 26.9334 45.2371 56.6548C45.2371 97.0358 0 116.095 0 116.095L1.32989 118.363C1.32989 118.363 31.5377 97.4911 60.5858 97.2635C61.0623 97.2608 62.9681 97.2608 63.4498 97.2635C92.4979 97.4911 122.706 118.363 122.706 118.363L124.036 116.095C124.036 116.095 78.7985 97.0385 78.7985 56.6548H78.8011Z" fill="white"/>
<defs>
<clipPath id="clip0_13_90">
<rect width="278.883" height="111.878" fill="white" transform="translate(171)"/>
</clipPath>
</defs>
</svg>
